<svg width="81" height="32" viewBox="0 0 81 32" fill="none" xmlns="http://www.w3.org/2000/svg">
<path d="M12.8945 27.7044C15.2486 26.7786 14.7328 24.2262 13.5426 22.6127C12.3655 20.9595 10.7388 19.8222 9.09888 18.7245C7.93506 17.9838 6.86382 17.0581 6.00418 16.0001C5.63387 15.5636 4.88003 14.7569 5.6471 14.5982C6.42739 14.4395 7.77636 15.2066 8.46407 15.4975C9.66757 16.0001 10.8578 16.582 11.9688 17.2697L13.3045 15.0214C11.2414 13.6592 8.59632 12.4557 6.13643 12.0986C4.73456 11.887 3.25333 12.178 2.77722 13.6989C2.35402 15.0082 3.0285 16.3307 3.79557 17.3623C5.60742 19.7825 8.42439 20.9463 10.5272 23.0359C10.9769 23.4723 11.5191 23.9881 11.7836 24.5965C12.0613 25.1784 11.9952 25.218 11.3736 25.218C9.73369 25.218 7.68378 23.9352 6.34803 23.0888L5.01229 25.3371C7.03575 26.5802 10.4214 28.5244 12.8945 27.7044ZM25.0749 9.82388L17.5762 17.3226H14.5477V14.294L22.0464 6.78208L25.0749 9.82388ZM29.5715 8.79232C29.5583 9.18907 29.1483 9.59906 28.7251 10.009L25.3924 13.355L24.2418 12.2044L27.6803 8.77909L26.9 7.9988L26.0139 8.88489L22.9854 5.85632L25.8288 3.0129C26.1462 2.69549 26.662 2.69549 26.9662 3.0129L28.8574 4.9041C29.1748 5.19506 29.1748 5.72407 28.8574 6.04147C28.5796 6.3192 28.3151 6.58371 28.3151 6.84821C28.2887 7.11271 28.5532 7.40367 28.8177 7.6285C29.2012 8.02525 29.5848 8.39556 29.5715 8.79232Z" fill="#1A2E4F"/>
<path d="M40.7673 21.5V10.6618H43.2756V19.4562H48.7102V21.5H40.7673ZM53.8445 21.6239C52.9568 21.6239 52.1672 21.4381 51.4756 21.0665C50.7943 20.6949 50.2524 20.1891 49.8499 19.5491C49.4576 18.8988 49.2615 18.1608 49.2615 17.335C49.2615 16.4989 49.4576 15.7609 49.8499 15.1209C50.2524 14.4706 50.7943 13.9648 51.4756 13.6036C52.1672 13.232 52.9568 13.0462 53.8445 13.0462C54.7219 13.0462 55.5064 13.232 56.198 13.6036C56.8896 13.9648 57.4315 14.4655 57.8237 15.1054C58.2159 15.7454 58.4121 16.4886 58.4121 17.335C58.4121 18.1608 58.2159 18.8988 57.8237 19.5491C57.4315 20.1891 56.8896 20.6949 56.198 21.0665C55.5064 21.4381 54.7219 21.6239 53.8445 21.6239ZM53.8445 19.642C54.2471 19.642 54.6084 19.5491 54.9284 19.3633C55.2483 19.1775 55.5012 18.9143 55.687 18.5737C55.8728 18.2227 55.9657 17.8098 55.9657 17.335C55.9657 16.8499 55.8728 16.437 55.687 16.0964C55.5012 15.7557 55.2483 15.4925 54.9284 15.3067C54.6084 15.1209 54.2471 15.028 53.8445 15.028C53.442 15.028 53.0807 15.1209 52.7607 15.3067C52.4407 15.4925 52.1827 15.7557 51.9865 16.0964C51.8007 16.437 51.7078 16.8499 51.7078 17.335C51.7078 17.8098 51.8007 18.2227 51.9865 18.5737C52.1827 18.9143 52.4407 19.1775 52.7607 19.3633C53.0807 19.5491 53.442 19.642 53.8445 19.642ZM63.9438 24.6276C63.1593 24.6276 62.4006 24.5295 61.6678 24.3334C60.9452 24.1476 60.3414 23.8638 59.8562 23.4818L60.8162 21.7477C61.1671 22.0368 61.611 22.2638 62.1477 22.429C62.6948 22.6045 63.2316 22.6922 63.758 22.6922C64.6147 22.6922 65.2341 22.5012 65.616 22.1193C66.0082 21.7374 66.2043 21.1697 66.2043 20.4162V19.162L66.3592 17.0718L66.3282 14.9661V13.17H68.6197V20.1065C68.6197 21.6548 68.2172 22.7954 67.412 23.5283C66.6069 24.2612 65.4508 24.6276 63.9438 24.6276ZM63.5722 21.0974C62.798 21.0974 62.0961 20.9323 61.4665 20.602C60.8472 20.2613 60.3465 19.7917 59.9646 19.193C59.593 18.584 59.4072 17.8769 59.4072 17.0718C59.4072 16.2564 59.593 15.5493 59.9646 14.9506C60.3465 14.3416 60.8472 13.8719 61.4665 13.5416C62.0961 13.2113 62.798 13.0462 63.5722 13.0462C64.2741 13.0462 64.8934 13.1907 65.4302 13.4797C65.9669 13.7584 66.385 14.1971 66.6843 14.7958C66.9837 15.3841 67.1333 16.1428 67.1333 17.0718C67.1333 17.9905 66.9837 18.7492 66.6843 19.3478C66.385 19.9362 65.9669 20.3749 65.4302 20.6639C64.8934 20.9529 64.2741 21.0974 63.5722 21.0974ZM64.0522 19.1156C64.4754 19.1156 64.8521 19.033 65.1825 18.8679C65.5128 18.6924 65.7708 18.4498 65.9566 18.1401C66.1424 17.8305 66.2353 17.4744 66.2353 17.0718C66.2353 16.6589 66.1424 16.3028 65.9566 16.0035C65.7708 15.6938 65.5128 15.4564 65.1825 15.2912C64.8521 15.1158 64.4754 15.028 64.0522 15.028C63.629 15.028 63.2522 15.1158 62.9219 15.2912C62.5916 15.4564 62.3284 15.6938 62.1323 16.0035C61.9465 16.3028 61.8536 16.6589 61.8536 17.0718C61.8536 17.4744 61.9465 17.8305 62.1323 18.1401C62.3284 18.4498 62.5916 18.6924 62.9219 18.8679C63.2522 19.033 63.629 19.1156 64.0522 19.1156ZM74.8315 21.6239C73.9438 21.6239 73.1542 21.4381 72.4626 21.0665C71.7813 20.6949 71.2394 20.1891 70.8368 19.5491C70.4446 18.8988 70.2485 18.1608 70.2485 17.335C70.2485 16.4989 70.4446 15.7609 70.8368 15.1209C71.2394 14.4706 71.7813 13.9648 72.4626 13.6036C73.1542 13.232 73.9438 13.0462 74.8315 13.0462C75.7089 13.0462 76.4934 13.232 77.1849 13.6036C77.8765 13.9648 78.4184 14.4655 78.8107 15.1054C79.2029 15.7454 79.399 16.4886 79.399 17.335C79.399 18.1608 79.2029 18.8988 78.8107 19.5491C78.4184 20.1891 77.8765 20.6949 77.1849 21.0665C76.4934 21.4381 75.7089 21.6239 74.8315 21.6239ZM74.8315 19.642C75.2341 19.642 75.5953 19.5491 75.9153 19.3633C76.2353 19.1775 76.4882 18.9143 76.674 18.5737C76.8598 18.2227 76.9527 17.8098 76.9527 17.335C76.9527 16.8499 76.8598 16.437 76.674 16.0964C76.4882 15.7557 76.2353 15.4925 75.9153 15.3067C75.5953 15.1209 75.2341 15.028 74.8315 15.028C74.4289 15.028 74.0677 15.1209 73.7477 15.3067C73.4277 15.4925 73.1696 15.7557 72.9735 16.0964C72.7877 16.437 72.6948 16.8499 72.6948 17.335C72.6948 17.8098 72.7877 18.2227 72.9735 18.5737C73.1696 18.9143 73.4277 19.1775 73.7477 19.3633C74.0677 19.5491 74.4289 19.642 74.8315 19.642Z" fill="#1A2E4F"/>
</svg>
