<svg width="81" height="32" viewBox="0 0 81 32" fill="none" xmlns="http://www.w3.org/2000/svg">
<path d="M12.8946 27.7042C15.2487 26.7784 14.7329 24.226 13.5426 22.6125C12.3656 20.9593 10.7389 19.822 9.09894 18.7243C7.93512 17.9837 6.86388 17.0579 6.00424 15.9999C5.63393 15.5634 4.8801 14.7567 5.64716 14.598C6.42745 14.4393 7.77642 15.2064 8.46413 15.4973C9.66763 15.9999 10.8579 16.5818 11.9688 17.2695L13.3046 15.0212C11.2414 13.659 8.59638 12.4555 6.13649 12.0984C4.73462 11.8868 3.25339 12.1778 2.77729 13.6987C2.35408 15.008 3.02856 16.3305 3.79563 17.3621C5.60748 19.7823 8.42446 20.9461 10.5273 23.0357C10.9769 23.4721 11.5192 23.9879 11.7837 24.5963C12.0614 25.1782 11.9953 25.2179 11.3737 25.2179C9.73375 25.2179 7.68384 23.935 6.3481 23.0886L5.01235 25.3369C7.03581 26.5801 10.4215 28.5242 12.8946 27.7042ZM25.075 9.8237L17.5763 17.3224H14.5477V14.2938L22.0464 6.7819L25.075 9.8237ZM29.5716 8.79213C29.5584 9.18889 29.1484 9.59887 28.7252 10.0089L25.3924 13.3548L24.2418 12.2042L27.6804 8.77891L26.9001 7.99862L26.014 8.88471L22.9854 5.85614L25.8288 3.01271C26.1463 2.69531 26.662 2.69531 26.9662 3.01271L28.8574 4.90392C29.1748 5.19487 29.1748 5.72388 28.8574 6.04129C28.5797 6.31902 28.3152 6.58352 28.3152 6.84803C28.2887 7.11253 28.5532 7.40349 28.8177 7.62831C29.2013 8.02507 29.5848 8.39538 29.5716 8.79213Z" fill="white"/>
<path d="M40.7672 21.4999V10.6616H43.2755V19.4561H48.7101V21.4999H40.7672ZM53.8445 21.6237C52.9568 21.6237 52.1671 21.4379 51.4755 21.0663C50.7943 20.6948 50.2524 20.189 49.8498 19.549C49.4576 18.8987 49.2614 18.1607 49.2614 17.3349C49.2614 16.4988 49.4576 15.7608 49.8498 15.1208C50.2524 14.4705 50.7943 13.9647 51.4755 13.6035C52.1671 13.2319 52.9568 13.0461 53.8445 13.0461C54.7218 13.0461 55.5063 13.2319 56.1979 13.6035C56.8895 13.9647 57.4314 14.4653 57.8236 15.1053C58.2159 15.7453 58.412 16.4885 58.412 17.3349C58.412 18.1607 58.2159 18.8987 57.8236 19.549C57.4314 20.189 56.8895 20.6948 56.1979 21.0663C55.5063 21.4379 54.7218 21.6237 53.8445 21.6237ZM53.8445 19.6419C54.247 19.6419 54.6083 19.549 54.9283 19.3632C55.2483 19.1774 55.5012 18.9142 55.687 18.5736C55.8728 18.2226 55.9657 17.8097 55.9657 17.3349C55.9657 16.8498 55.8728 16.4369 55.687 16.0962C55.5012 15.7556 55.2483 15.4924 54.9283 15.3066C54.6083 15.1208 54.247 15.0279 53.8445 15.0279C53.4419 15.0279 53.0806 15.1208 52.7606 15.3066C52.4407 15.4924 52.1826 15.7556 51.9865 16.0962C51.8007 16.4369 51.7078 16.8498 51.7078 17.3349C51.7078 17.8097 51.8007 18.2226 51.9865 18.5736C52.1826 18.9142 52.4407 19.1774 52.7606 19.3632C53.0806 19.549 53.4419 19.6419 53.8445 19.6419ZM63.9437 24.6275C63.1593 24.6275 62.4006 24.5294 61.6677 24.3333C60.9452 24.1475 60.3413 23.8636 59.8562 23.4817L60.8161 21.7476C61.1671 22.0366 61.6109 22.2637 62.1477 22.4289C62.6948 22.6043 63.2315 22.6921 63.7579 22.6921C64.6147 22.6921 65.234 22.5011 65.6159 22.1192C66.0082 21.7373 66.2043 21.1696 66.2043 20.4161V19.1619L66.3591 17.0717L66.3281 14.966V13.1699H68.6197V20.1064C68.6197 21.6547 68.2171 22.7953 67.412 23.5282C66.6068 24.261 65.4508 24.6275 63.9437 24.6275ZM63.5721 21.0973C62.798 21.0973 62.0961 20.9322 61.4664 20.6019C60.8471 20.2612 60.3465 19.7916 59.9646 19.1929C59.593 18.5839 59.4072 17.8768 59.4072 17.0717C59.4072 16.2562 59.593 15.5492 59.9646 14.9505C60.3465 14.3415 60.8471 13.8718 61.4664 13.5415C62.0961 13.2112 62.798 13.0461 63.5721 13.0461C64.274 13.0461 64.8934 13.1906 65.4301 13.4796C65.9669 13.7583 66.3849 14.197 66.6843 14.7957C66.9836 15.384 67.1333 16.1427 67.1333 17.0717C67.1333 17.9904 66.9836 18.749 66.6843 19.3477C66.3849 19.9361 65.9669 20.3748 65.4301 20.6638C64.8934 20.9528 64.274 21.0973 63.5721 21.0973ZM64.0521 19.1155C64.4753 19.1155 64.8521 19.0329 65.1824 18.8677C65.5127 18.6923 65.7708 18.4497 65.9566 18.14C66.1424 17.8304 66.2352 17.4742 66.2352 17.0717C66.2352 16.6588 66.1424 16.3027 65.9566 16.0033C65.7708 15.6937 65.5127 15.4563 65.1824 15.2911C64.8521 15.1156 64.4753 15.0279 64.0521 15.0279C63.6289 15.0279 63.2522 15.1156 62.9218 15.2911C62.5915 15.4563 62.3283 15.6937 62.1322 16.0033C61.9464 16.3027 61.8535 16.6588 61.8535 17.0717C61.8535 17.4742 61.9464 17.8304 62.1322 18.14C62.3283 18.4497 62.5915 18.6923 62.9218 18.8677C63.2522 19.0329 63.6289 19.1155 64.0521 19.1155ZM74.8314 21.6237C73.9437 21.6237 73.1541 21.4379 72.4625 21.0663C71.7813 20.6948 71.2393 20.189 70.8368 19.549C70.4445 18.8987 70.2484 18.1607 70.2484 17.3349C70.2484 16.4988 70.4445 15.7608 70.8368 15.1208C71.2393 14.4705 71.7813 13.9647 72.4625 13.6035C73.1541 13.2319 73.9437 13.0461 74.8314 13.0461C75.7088 13.0461 76.4933 13.2319 77.1849 13.6035C77.8765 13.9647 78.4184 14.4653 78.8106 15.1053C79.2029 15.7453 79.399 16.4885 79.399 17.3349C79.399 18.1607 79.2029 18.8987 78.8106 19.549C78.4184 20.189 77.8765 20.6948 77.1849 21.0663C76.4933 21.4379 75.7088 21.6237 74.8314 21.6237ZM74.8314 19.6419C75.234 19.6419 75.5953 19.549 75.9153 19.3632C76.2353 19.1774 76.4881 18.9142 76.6739 18.5736C76.8597 18.2226 76.9526 17.8097 76.9526 17.3349C76.9526 16.8498 76.8597 16.4369 76.6739 16.0962C76.4881 15.7556 76.2353 15.4924 75.9153 15.3066C75.5953 15.1208 75.234 15.0279 74.8314 15.0279C74.4289 15.0279 74.0676 15.1208 73.7476 15.3066C73.4276 15.4924 73.1696 15.7556 72.9735 16.0962C72.7877 16.4369 72.6948 16.8498 72.6948 17.3349C72.6948 17.8097 72.7877 18.2226 72.9735 18.5736C73.1696 18.9142 73.4276 19.1774 73.7476 19.3632C74.0676 19.549 74.4289 19.6419 74.8314 19.6419Z" fill="white"/>
</svg>
