<svg width="21" height="21" viewBox="0 0 21 21" fill="none" xmlns="http://www.w3.org/2000/svg">
<path d="M15.0494 10.3104C15.0494 10.4805 15.0228 10.64 14.9696 10.7888C14.9165 10.9377 14.8261 11.0759 14.6985 11.2035L10.1054 15.7966C9.85023 16.0518 9.55253 16.174 9.2123 16.1634C8.87207 16.1528 8.57436 16.0305 8.31919 15.7966C8.06402 15.5414 7.93112 15.2384 7.92048 14.8875C7.90985 14.5367 8.03212 14.2336 8.28729 13.9785L10.6795 11.5862H1.55711C1.19562 11.5862 0.892601 11.464 0.648061 11.2194C0.40352 10.9749 0.28125 10.6719 0.28125 10.3104C0.28125 9.94887 0.40352 9.64585 0.648061 9.40131C0.892601 9.15677 1.19562 9.0345 1.55711 9.0345H10.6795L8.28729 6.64226C8.03212 6.38708 7.90985 6.08406 7.92048 5.7332C7.93112 5.38234 8.06402 5.07932 8.31919 4.82415C8.57436 4.59024 8.87207 4.46797 9.2123 4.45734C9.55253 4.44671 9.85023 4.56898 10.1054 4.82415L14.6985 9.41726C14.8261 9.54485 14.9165 9.68306 14.9696 9.83191C15.0228 9.98077 15.0494 10.1402 15.0494 10.3104ZM20.6951 17.9655C20.6951 18.6673 20.4452 19.268 19.9455 19.7677C19.4458 20.2674 18.8451 20.5173 18.1433 20.5173H15.5916C15.2301 20.5173 14.9271 20.395 14.6826 20.1505C14.438 19.9059 14.3158 19.6029 14.3158 19.2414C14.3158 18.8799 14.438 18.5769 14.6826 18.3324C14.9271 18.0878 15.2301 17.9655 15.5916 17.9655H18.1433V2.65518H15.5916C15.2301 2.65518 14.9271 2.53291 14.6826 2.28837C14.438 2.04383 14.3158 1.74081 14.3158 1.37932C14.3158 1.01782 14.438 0.714806 14.6826 0.470264C14.9271 0.225723 15.2301 0.103455 15.5916 0.103455H18.1433C18.8451 0.103455 19.4458 0.353312 19.9455 0.853024C20.4452 1.35274 20.6951 1.95346 20.6951 2.65518V17.9655Z" fill="#970B0B"/>
</svg>
