<svg width="25" height="24" viewBox="0 0 25 24" fill="none" xmlns="http://www.w3.org/2000/svg">
<g clip-path="url(#clip0_98729_592)">
<path d="M23.6545 0.800028L24.3905 1.11523C24.4538 0.968157 24.4716 0.805463 24.4414 0.648195C24.4113 0.490927 24.3346 0.346324 24.2214 0.233094C24.1082 0.119865 23.9636 0.0432213 23.8063 0.0130799C23.649 -0.0170616 23.4863 0.000686437 23.3393 0.0640275L23.6545 0.800028ZM1.25447 10.4L0.93927 9.66403C0.803595 9.722 0.686594 9.81637 0.601205 9.93669C0.515816 10.057 0.465365 10.1986 0.455429 10.3458C0.445494 10.493 0.476462 10.6401 0.544909 10.7708C0.613356 10.9015 0.716615 11.0107 0.843271 11.0864L1.25447 10.4ZM14.0545 23.2L13.3681 23.6112C13.4438 23.7379 13.553 23.8411 13.6837 23.9096C13.8144 23.978 13.9615 24.009 14.1087 23.9991C14.2559 23.9891 14.3975 23.9387 14.5178 23.8533C14.6381 23.7679 14.7325 23.6509 14.7905 23.5152L14.0545 23.2ZM23.3393 0.0640275L0.93927 9.66403L1.56967 11.136L23.9697 1.53603L23.3393 0.0640275ZM0.843271 11.0864L8.84327 15.888L9.66567 14.5152L1.66567 9.71523L0.843271 11.0864ZM8.56647 15.6112L13.3665 23.6112L14.7393 22.7888L9.93927 14.7888L8.56647 15.6112ZM14.7889 23.5152L24.3889 1.11523L22.9169 0.484828L13.3169 22.8848L14.7889 23.5152ZM23.0881 0.235228L8.68807 14.6352L9.82087 15.7664L24.2209 1.36643L23.0881 0.235228Z" fill="white"/>
</g>
<defs>
<clipPath id="clip0_98729_592">
<rect width="24" height="24" fill="white" transform="translate(0.45459)"/>
</clipPath>
</defs>
</svg>
