<svg width="17" height="17" viewBox="0 0 17 17" fill="none" xmlns="http://www.w3.org/2000/svg">
<path d="M8.87354 8.62329C7.77354 8.62329 6.83187 8.23162 6.04854 7.44829C5.2652 6.66496 4.87354 5.72329 4.87354 4.62329C4.87354 3.52329 5.2652 2.58162 6.04854 1.79829C6.83187 1.01496 7.77354 0.623291 8.87354 0.623291C9.97354 0.623291 10.9152 1.01496 11.6985 1.79829C12.4819 2.58162 12.8735 3.52329 12.8735 4.62329C12.8735 5.72329 12.4819 6.66496 11.6985 7.44829C10.9152 8.23162 9.97354 8.62329 8.87354 8.62329ZM0.873535 16.6233V13.8233C0.873535 13.2566 1.01937 12.7358 1.31104 12.2608C1.6027 11.7858 1.9902 11.4233 2.47354 11.1733C3.50687 10.6566 4.55687 10.2691 5.62354 10.0108C6.6902 9.75246 7.77354 9.62329 8.87354 9.62329C9.97354 9.62329 11.0569 9.75246 12.1235 10.0108C13.1902 10.2691 14.2402 10.6566 15.2735 11.1733C15.7569 11.4233 16.1444 11.7858 16.436 12.2608C16.7277 12.7358 16.8735 13.2566 16.8735 13.8233V16.6233H0.873535Z" fill="#838383"/>
</svg>
