<svg width="19" height="20" viewBox="0 0 19 20" fill="none" xmlns="http://www.w3.org/2000/svg">
<path d="M8.39888 7.29575H10.2017V5.49292H8.39888M9.30029 17.2113C5.32505 17.2113 2.08896 13.9752 2.08896 10C2.08896 6.02476 5.32505 2.78867 9.30029 2.78867C13.2755 2.78867 16.5116 6.02476 16.5116 10C16.5116 13.9752 13.2755 17.2113 9.30029 17.2113ZM9.30029 0.98584C8.11654 0.98584 6.94437 1.219 5.85072 1.672C4.75707 2.12501 3.76336 2.78898 2.92632 3.62603C1.23584 5.31651 0.286133 7.6093 0.286133 10C0.286133 12.3907 1.23584 14.6835 2.92632 16.374C3.76336 17.211 4.75707 17.875 5.85072 18.328C6.94437 18.781 8.11654 19.0142 9.30029 19.0142C11.691 19.0142 13.9838 18.0645 15.6743 16.374C17.3647 14.6835 18.3145 12.3907 18.3145 10C18.3145 8.81624 18.0813 7.64408 17.6283 6.55043C17.1753 5.45678 16.5113 4.46307 15.6743 3.62603C14.8372 2.78898 13.8435 2.12501 12.7499 1.672C11.6562 1.219 10.484 0.98584 9.30029 0.98584ZM8.39888 14.5071H10.2017V9.09858H8.39888V14.5071Z" fill="#F4EDE8"/>
</svg>
