<svg width="20" height="20" viewBox="0 0 20 20" fill="none" xmlns="http://www.w3.org/2000/svg">
<mask id="mask0_22_285" style="mask-type:alpha" maskUnits="userSpaceOnUse" x="0" y="0" width="20" height="20">
<rect y="0.258667" width="19.4827" height="19.4827" fill="#D9D9D9"/>
</mask>
<g mask="url(#mask0_22_285)">
<path d="M2.88178 10L8.84836 15.9666C9.05131 16.1695 9.1494 16.4063 9.14263 16.6769C9.13587 16.9475 9.03101 17.1843 8.82807 17.3872C8.62512 17.5901 8.38835 17.6916 8.11776 17.6916C7.84717 17.6916 7.6104 17.5901 7.40745 17.3872L1.15675 11.1568C0.99439 10.9944 0.872623 10.8118 0.791445 10.6088C0.710267 10.4059 0.669678 10.203 0.669678 10C0.669678 9.79706 0.710267 9.59412 0.791445 9.39117C0.872623 9.18823 0.99439 9.00557 1.15675 8.84322L7.40745 2.59251C7.6104 2.38957 7.85055 2.29148 8.12791 2.29824C8.40527 2.305 8.64542 2.40986 8.84836 2.6128C9.05131 2.81575 9.15278 3.05252 9.15278 3.32311C9.15278 3.59371 9.05131 3.83048 8.84836 4.03342L2.88178 10Z" fill="#1C1B1F"/>
</g>
</svg>
