<svg width="104" height="105" viewBox="0 0 104 105" fill="none" xmlns="http://www.w3.org/2000/svg">
<path d="M103.653 52.5C103.653 81.123 80.4495 104.327 51.8265 104.327C23.2035 104.327 0 81.123 0 52.5C0 23.877 23.2035 0.673462 51.8265 0.673462C80.4495 0.673462 103.653 23.877 103.653 52.5Z" fill="#F4EDE8"/>
<path d="M52 11.5C46.8946 11.5 41.9983 13.5281 38.3882 17.1382C34.7781 20.7483 32.75 25.6446 32.75 30.75C32.75 35.8554 34.7781 40.7517 38.3882 44.3618C41.9983 47.9719 46.8946 50 52 50C57.1054 50 62.0017 47.9719 65.6118 44.3618C69.2219 40.7517 71.25 35.8554 71.25 30.75C71.25 25.6446 69.2219 20.7483 65.6118 17.1382C62.0017 13.5281 57.1054 11.5 52 11.5ZM35.5 30.75C35.5 26.3739 37.2384 22.1771 40.3327 19.0827C43.4271 15.9884 47.6239 14.25 52 14.25C56.3761 14.25 60.5729 15.9884 63.6673 19.0827C66.7616 22.1771 68.5 26.3739 68.5 30.75C68.5 35.1261 66.7616 39.3229 63.6673 42.4173C60.5729 45.5116 56.3761 47.25 52 47.25C47.6239 47.25 43.4271 45.5116 40.3327 42.4173C37.2384 39.3229 35.5 35.1261 35.5 30.75ZM28.625 55.5C26.0723 55.5 23.6241 56.5141 21.8191 58.3191C20.0141 60.1241 19 62.5723 19 65.125V66.9592C19 72.8717 26.6065 88.5 52 88.5C77.3935 88.5 85 72.869 85 66.9592V65.125C85 62.5723 83.9859 60.1241 82.1809 58.3191C80.3759 56.5141 77.9277 55.5 75.375 55.5H28.625ZM21.75 65.125C21.75 63.3016 22.4743 61.553 23.7636 60.2636C25.053 58.9743 26.8016 58.25 28.625 58.25H75.375C77.1984 58.25 78.947 58.9743 80.2364 60.2636C81.5257 61.553 82.25 63.3016 82.25 65.125V66.9592C82.25 71.131 76.1038 85.75 52 85.75C27.8962 85.75 21.75 71.131 21.75 66.9592V65.125Z" fill="black"/>
</svg>
