<svg width="68" height="68" viewBox="0 0 68 68" fill="none" xmlns="http://www.w3.org/2000/svg">
<mask id="mask0_71_48" style="mask-type:alpha" maskUnits="userSpaceOnUse" x="0" y="0" width="68" height="68">
<rect x="0.325195" y="0.325195" width="67.3496" height="67.3496" fill="#D9D9D9"/>
</mask>
<g mask="url(#mask0_71_48)">
<path d="M33.9999 34.0001C37.04 34.0001 40.197 33.7545 43.471 33.2634C46.7449 32.7724 49.785 32.0825 52.5912 31.1938C53.5266 30.8197 54.4036 30.9366 55.2221 31.5446C56.0405 32.1526 56.4498 32.9477 56.4498 33.9299V53.9945C56.4498 55.1638 56.1107 56.2278 55.4325 57.1866C54.7544 58.1454 53.8774 58.8353 52.8017 59.2562C50.1358 60.1448 47.1541 60.8347 43.8568 61.3258C40.5595 61.8169 37.2739 62.0624 33.9999 62.0624C30.726 62.0624 27.4403 61.8169 24.143 61.3258C20.8457 60.8347 17.8641 60.1448 15.1982 59.2562C14.1224 58.8353 13.2455 58.1454 12.5673 57.1866C11.8891 56.2278 11.55 55.1638 11.55 53.9945V33.9299C11.55 32.9477 11.9593 32.1526 12.7778 31.5446C13.5963 30.9366 14.4732 30.8197 15.4086 31.1938C18.2149 32.0825 21.2549 32.7724 24.5289 33.2634C27.8028 33.7545 30.9598 34.0001 33.9999 34.0001ZM33.9999 5.93774C37.0868 5.93774 39.7293 7.03685 41.9275 9.23507C44.1257 11.4333 45.2249 14.0758 45.2249 17.1627C45.2249 20.2495 44.1257 22.8921 41.9275 25.0903C39.7293 27.2885 37.0868 28.3876 33.9999 28.3876C30.9131 28.3876 28.2705 27.2885 26.0723 25.0903C23.8741 22.8921 22.775 20.2495 22.775 17.1627C22.775 14.0758 23.8741 11.4333 26.0723 9.23507C28.2705 7.03685 30.9131 5.93774 33.9999 5.93774Z" fill="#1A2E4F"/>
</g>
</svg>
