<svg width="64" height="63" viewBox="0 0 64 63" fill="none" xmlns="http://www.w3.org/2000/svg">
<mask id="mask0_22_181" style="mask-type:alpha" maskUnits="userSpaceOnUse" x="0" y="0" width="64" height="63">
<rect x="0.550293" y="0.050293" width="62.8994" height="62.8994" fill="#D9D9D9"/>
</mask>
<g mask="url(#mask0_22_181)">
<path d="M47.7247 60.3288C44.0993 60.3288 41.0089 59.0511 38.4536 56.4958C35.8983 53.9406 34.6207 50.8502 34.6207 47.2247C34.6207 43.5993 35.8983 40.5089 38.4536 37.9536C41.0089 35.3983 44.0993 34.1207 47.7247 34.1207C51.3502 34.1207 54.4406 35.3983 56.9958 37.9536C59.5511 40.5089 60.8288 43.5993 60.8288 47.2247C60.8288 50.8502 59.5511 53.9406 56.9958 56.4958C54.4406 59.0511 51.3502 60.3288 47.7247 60.3288ZM21.5166 23.6375H42.4831C43.2257 23.6375 43.8481 23.3863 44.3504 22.884C44.8528 22.3816 45.1039 21.7592 45.1039 21.0166C45.1039 20.2741 44.8528 19.6516 44.3504 19.1493C43.8481 18.647 43.2257 18.3958 42.4831 18.3958H21.5166C20.7741 18.3958 20.1516 18.647 19.6493 19.1493C19.147 19.6516 18.8958 20.2741 18.8958 21.0166C18.8958 21.7592 19.147 22.3816 19.6493 22.884C20.1516 23.3863 20.7741 23.6375 21.5166 23.6375ZM13.6542 55.0872C12.2128 55.0872 10.9788 54.5739 9.95232 53.5474C8.92584 52.521 8.4126 51.287 8.4126 49.8455V13.1542C8.4126 11.7128 8.92584 10.4788 9.95232 9.45232C10.9788 8.42584 12.2128 7.9126 13.6542 7.9126H50.3455C51.787 7.9126 53.021 8.42584 54.0474 9.45232C55.0739 10.4788 55.5872 11.7128 55.5872 13.1542V27.4376C55.5872 28.2239 55.2596 28.8354 54.6044 29.2722C53.9492 29.709 53.2503 29.7964 52.5077 29.5343C51.7651 29.3159 50.9898 29.1521 50.1817 29.0429C49.3737 28.9337 48.5547 28.8791 47.7247 28.8791C47.2443 28.8791 46.7965 28.89 46.3816 28.9118C45.9666 28.9337 45.5407 28.9883 45.1039 29.0756C44.7108 28.9883 44.274 28.9337 43.7935 28.9118C43.313 28.89 42.8762 28.8791 42.4831 28.8791H21.5166C20.7741 28.8791 20.1516 29.1302 19.6493 29.6326C19.147 30.1349 18.8958 30.7573 18.8958 31.4999C18.8958 32.2424 19.147 32.8649 19.6493 33.3672C20.1516 33.8695 20.7741 34.1207 21.5166 34.1207H34.9483C34.162 34.8633 33.4522 35.6713 32.8189 36.5449C32.1855 37.4185 31.6286 38.3577 31.1481 39.3623H21.5166C20.7741 39.3623 20.1516 39.6135 19.6493 40.1158C19.147 40.6181 18.8958 41.2406 18.8958 41.9831C18.8958 42.7257 19.147 43.3481 19.6493 43.8504C20.1516 44.3528 20.7741 44.6039 21.5166 44.6039H29.5756C29.4883 45.0407 29.4337 45.4666 29.4118 45.8816C29.39 46.2965 29.3791 46.7443 29.3791 47.2247C29.3791 48.0983 29.4228 48.9283 29.5101 49.7145C29.5975 50.5007 29.7504 51.2651 29.9688 52.0077C30.1872 52.7503 30.078 53.4492 29.6412 54.1044C29.2044 54.7596 28.6147 55.0872 27.8721 55.0872H13.6542ZM47.7247 47.2247C48.8167 47.2247 49.7449 46.8425 50.5093 46.0781C51.2737 45.3137 51.6559 44.3855 51.6559 43.2935C51.6559 42.2015 51.2737 41.2733 50.5093 40.5089C49.7449 39.7445 48.8167 39.3623 47.7247 39.3623C46.6327 39.3623 45.7045 39.7445 44.9401 40.5089C44.1757 41.2733 43.7935 42.2015 43.7935 43.2935C43.7935 44.3855 44.1757 45.3137 44.9401 46.0781C45.7045 46.8425 46.6327 47.2247 47.7247 47.2247ZM47.7247 55.0872C48.8167 55.0872 49.8432 54.8797 50.8042 54.4647C51.7652 54.0498 52.6169 53.4492 53.3595 52.6629C53.5779 52.4008 53.6652 52.106 53.6216 51.7784C53.5779 51.4508 53.3813 51.1996 53.0319 51.0249C52.202 50.6318 51.3393 50.3369 50.4438 50.1404C49.5484 49.9438 48.642 49.8455 47.7247 49.8455C46.8074 49.8455 45.9011 49.9438 45.0056 50.1404C44.1102 50.3369 43.2475 50.6318 42.4176 51.0249C42.0682 51.1559 41.8716 51.3962 41.8279 51.7456C41.7842 52.0951 41.8716 52.4008 42.09 52.6629C42.8326 53.4492 43.6843 54.0498 44.6453 54.4647C45.6062 54.8797 46.6327 55.0872 47.7247 55.0872Z" fill="#1A2E4F"/>
</g>
</svg>
