<svg width="68" height="67" viewBox="0 0 68 67" fill="none" xmlns="http://www.w3.org/2000/svg">
<path d="M34 15.3542C36.6301 15.3542 39.1524 16.3837 41.0121 18.2161C42.8719 20.0484 43.9167 22.5337 43.9167 25.1251C43.9167 27.7165 42.8719 30.2017 41.0121 32.0341C39.1524 33.8665 36.6301 34.8959 34 34.8959C31.3699 34.8959 28.8476 33.8665 26.9879 32.0341C25.1281 30.2017 24.0833 27.7165 24.0833 25.1251C24.0833 22.5337 25.1281 20.0484 26.9879 18.2161C28.8476 16.3837 31.3699 15.3542 34 15.3542ZM14.1667 22.3334C15.7533 22.3334 17.2267 22.7522 18.5017 23.5059C18.0767 27.498 19.2667 31.4622 21.7033 34.5609C20.2867 37.2409 17.4533 39.0834 14.1667 39.0834C11.9123 39.0834 9.75032 38.2011 8.15626 36.6304C6.5622 35.0598 5.66667 32.9296 5.66667 30.7084C5.66667 28.4872 6.5622 26.357 8.15626 24.7864C9.75032 23.2158 11.9123 22.3334 14.1667 22.3334ZM53.8333 22.3334C56.0877 22.3334 58.2497 23.2158 59.8437 24.7864C61.4378 26.357 62.3333 28.4872 62.3333 30.7084C62.3333 32.9296 61.4378 35.0598 59.8437 36.6304C58.2497 38.2011 56.0877 39.0834 53.8333 39.0834C50.5467 39.0834 47.7133 37.2409 46.2967 34.5609C48.7333 31.4622 49.9233 27.498 49.4983 23.5059C50.7733 22.7522 52.2467 22.3334 53.8333 22.3334ZM15.5833 50.948C15.5833 45.1692 23.8283 40.4792 34 40.4792C44.1717 40.4792 52.4167 45.1692 52.4167 50.948V55.8334H15.5833V50.948ZM0 55.8334V51.6459C0 47.7655 5.355 44.4992 12.6083 43.5501C10.9367 45.4484 9.91667 48.0726 9.91667 50.948V55.8334H0ZM68 55.8334H58.0833V50.948C58.0833 48.0726 57.0633 45.4484 55.3917 43.5501C62.645 44.4992 68 47.7655 68 51.6459V55.8334Z" fill="#1A2E4F"/>
</svg>
