<svg width="25" height="25" viewBox="0 0 25 25" fill="none" xmlns="http://www.w3.org/2000/svg">
<mask id="mask0_22_312" style="mask-type:alpha" maskUnits="userSpaceOnUse" x="0" y="0" width="25" height="25">
<rect x="0.424561" y="0.4245" width="24" height="24" fill="#D9D9D9"/>
</mask>
<g mask="url(#mask0_22_312)">
<path d="M12.4245 16.4245C13.6745 16.4245 14.737 15.987 15.612 15.112C16.487 14.237 16.9245 13.1745 16.9245 11.9245C16.9245 10.6745 16.487 9.612 15.612 8.737C14.737 7.862 13.6745 7.4245 12.4245 7.4245C11.1745 7.4245 10.112 7.862 9.23696 8.737C8.36196 9.612 7.92446 10.6745 7.92446 11.9245C7.92446 13.1745 8.36196 14.237 9.23696 15.112C10.112 15.987 11.1745 16.4245 12.4245 16.4245ZM12.4245 14.6245C11.6745 14.6245 11.037 14.362 10.512 13.837C9.98696 13.312 9.72446 12.6745 9.72446 11.9245C9.72446 11.1745 9.98696 10.537 10.512 10.012C11.037 9.487 11.6745 9.2245 12.4245 9.2245C13.1745 9.2245 13.812 9.487 14.337 10.012C14.862 10.537 15.1245 11.1745 15.1245 11.9245C15.1245 12.6745 14.862 13.312 14.337 13.837C13.812 14.362 13.1745 14.6245 12.4245 14.6245ZM12.4245 19.4245C10.1911 19.4245 8.15363 18.8245 6.31196 17.6245C4.4703 16.4245 3.01613 14.8412 1.94946 12.8745C1.86613 12.7245 1.80363 12.5703 1.76196 12.412C1.7203 12.2537 1.69946 12.0912 1.69946 11.9245C1.69946 11.7578 1.7203 11.5953 1.76196 11.437C1.80363 11.2787 1.86613 11.1245 1.94946 10.9745C3.01613 9.00783 4.4703 7.4245 6.31196 6.2245C8.15363 5.0245 10.1911 4.4245 12.4245 4.4245C14.6578 4.4245 16.6953 5.0245 18.537 6.2245C20.3786 7.4245 21.8328 9.00783 22.8995 10.9745C22.9828 11.1245 23.0453 11.2787 23.087 11.437C23.1286 11.5953 23.1495 11.7578 23.1495 11.9245C23.1495 12.0912 23.1286 12.2537 23.087 12.412C23.0453 12.5703 22.9828 12.7245 22.8995 12.8745C21.8328 14.8412 20.3786 16.4245 18.537 17.6245C16.6953 18.8245 14.6578 19.4245 12.4245 19.4245Z" fill="#5C4F51"/>
</g>
</svg>
